Coordinates
version=1
nRows=17
nColumns=36
inDegrees=yes

Units are S.I. units (second, meters, Newtons, ...)
If the header above contains a line with 'inDegrees', this indicates whether rotational values are in degrees (yes) or radians (no).

endheader
time	pelvis_tilt	pelvis_list	pelvis_rotation	pelvis_tx	pelvis_ty	pelvis_tz	hip_flexion_r	hip_adduction_r	hip_rotation_r	knee_angle_r	knee_angle_r_beta	ankle_angle_r	subtalar_angle_r	mtp_angle_r	hip_flexion_l	hip_adduction_l	hip_rotation_l	knee_angle_l	knee_angle_l_beta	ankle_angle_l	subtalar_angle_l	mtp_angle_l	lumbar_extension	lumbar_bending	lumbar_rotation	arm_flex_r	arm_add_r	arm_rot_r	elbow_flex_r	pro_sup_r	arm_flex_l	arm_add_l	arm_rot_l	elbow_flex_l	pro_sup_l
      6.50000000	    -31.00627504	      3.10399192	     -8.56840308	      1.41979281	      0.69269098	      0.08215750	     79.72159149	     -6.63535590	     -1.47349515	     77.23725369	      1.34804438	     36.40121395	      0.86028542	     -7.49999987	     79.46904043	     -9.30802745	      2.80584151	     75.22493346	      1.31292277	     32.17583140	    -11.54618793	     -7.49999987	    -11.09721319	     -0.44577936	      7.34698598	     58.10276025	     -1.69492341	     73.75315269	    121.85294936	    108.30821020	     70.34632758	      9.89775633	     73.10989964	    119.15240456	    108.10331154
      6.51666670	    -31.61004360	      3.23576235	     -8.70385810	      1.41871577	      0.68502981	      0.08189144	     81.50716194	     -6.42949039	     -1.38215199	     78.70200046	      1.37360904	     36.66351761	      0.38266541	     -7.49999987	     81.27361191	     -9.54456868	      2.97180646	     76.79918965	      1.34039872	     32.58590708	    -11.33518987	     -7.49999987	    -11.22209113	     -0.72540055	      7.57309614	     58.07443281	     -2.43978257	     75.15657347	    121.50101306	    107.09743359	     70.36106438	      9.65580851	     73.10031086	    118.57406240	    106.91702240
      6.53333330	    -32.07885745	      3.25625216	     -8.81460436	      1.40866514	      0.67782904	      0.07947975	     83.20933724	     -6.22249485	     -1.35334587	     80.08610700	      1.39776625	     36.64459289	     -0.36095396	     -7.49999987	     83.09941456	     -9.81829200	      3.17983191	     78.35745066	      1.36759551	     32.70142892	    -11.32016366	     -7.49999987	    -11.91067071	     -0.89841653	      8.06612845	     59.18691714	     -3.08144845	     75.35870009	    120.76917135	    107.30501642	     71.22193284	     10.29468890	     74.05759021	    117.90275903	    107.25954003
      6.55000000	    -32.48073361	      3.31942651	     -8.85259557	      1.40804159	      0.66789933	      0.07966581	     84.87719276	     -6.13904919	     -1.31578182	     81.53894861	      1.42312312	     36.85395316	     -0.84729712	     -7.49999987	     84.85811565	     -9.98216107	      3.35391567	     79.89829336	      1.39448829	     32.85589296	    -11.47949054	     -7.49999987	    -12.67021855	     -1.12599082	      8.22861313	     59.99596836	     -2.99127435	     75.53086714	    121.15120662	    107.37528308	     71.88551971	     10.32416397	     74.02600485	    117.79429768	    107.35578910
      6.56666670	    -33.12710326	      3.39299118	     -8.85720705	      1.40242533	      0.65908352	      0.08235858	     86.81677203	     -6.00386626	     -1.27514624	     82.98662695	      1.44838988	     36.76857977	     -1.59628810	     -7.49999987	     86.94151150	    -10.13889734	      3.58673670	     81.44923068	      1.42155725	     32.87067297	    -11.59817475	     -7.49999987	    -12.86377570	     -1.36512000	      8.48813889	     60.80149489	     -3.31420856	     76.24288215	    122.17012758	    107.41752083	     73.09457288	     10.46404831	     73.99105725	    117.69345515	    107.49528149
      6.58333330	    -33.44818196	      3.35432599	     -8.79863593	      1.39660823	      0.65216441	      0.08626758	     88.38149313	     -5.83367609	     -1.23968016	     84.42743887	      1.47353679	     36.89960473	     -2.06583247	     -7.49999987	     88.72914032	    -10.30424335	      3.85096337	     82.94449461	      1.44765453	     32.83929978	    -11.86966350	     -7.49999987	    -13.60198909	     -1.55610964	      8.95419029	     61.65820759	     -4.17530849	     75.90668459	    121.49578529	    107.34022163	     73.81100127	     10.45185593	     74.29639937	    117.74884982	    107.54847451
      6.60000000	    -33.87856590	      3.32473231	     -8.70282323	      1.39623832	      0.64443034	      0.08635086	     89.96837031	     -5.69367525	     -1.25678817	     85.77851859	      1.49711758	     36.91617257	     -2.60114130	     -7.49999987	     90.54489029	    -10.46265827	      4.15147170	     84.31845752	      1.47163470	     32.75469192	    -12.07068836	     -7.49999987	    -14.46322657	     -1.78511924	      9.28750684	     62.18859346	     -4.21342206	     75.84394374	    121.33757922	    107.28599513	     74.14263351	     10.39250854	     74.53206766	    117.60052029	    107.58671486
      6.61666670	    -34.01223174	      3.34043193	     -8.57860116	      1.39126793	      0.63973085	      0.08873957	     91.23041661	     -5.60216328	     -1.17636527	     87.07952511	      1.51982442	     36.86076353	     -2.99468210	     -7.49999987	     91.94148183	    -10.55897188	      4.32166284	     85.56225423	      1.49334305	     32.71233254	    -12.39465849	     -7.49999987	    -15.44894446	     -2.06071742	      9.69325223	     62.69640461	     -3.88773336	     76.34040845	    121.59085033	    106.62674903	     74.73694091	     10.48490421	     75.00543739	    117.77695261	    106.93546553
      6.63333330	    -35.04677397	      3.22114396	     -8.43564276	      1.38628476	      0.62719365	      0.08368792	     93.45012008	     -5.47025824	     -1.32406893	     88.31720718	      1.54142605	     36.37037726	     -4.01464391	     -7.49999987	     94.48470836	    -10.66686258	      4.77024873	     86.88104300	      1.51636026	     32.10033025	    -12.74312650	     -7.49999987	    -15.10130708	     -1.88877022	      9.55601162	     63.20877473	     -5.38014126	     75.52157531	    122.84720001	    105.14079943	     75.58912097	     11.24548625	     74.78066125	    117.59282138	    105.99764714
      6.65000000	    -35.42766817	      3.23252994	     -8.24549255	      1.37662840	      0.61849828	      0.08296591	     95.28852368	     -5.56348380	     -1.27988018	     89.84560808	      1.56810168	     36.31934124	     -4.36754095	     -7.49999987	     96.48878225	    -10.69802996	      4.95661384	     88.32036551	      1.54148117	     31.86495761	    -12.93545749	     -7.49999987	    -15.78309552	     -1.95168496	      9.54149147	     64.19695180	     -5.50323770	     75.66568231	    122.86726842	    105.14200673	     76.94376769	     11.36592330	     74.31948666	    117.14257386	    106.06947693
      6.66666670	    -35.96360140	      3.34765123	     -8.04259502	      1.36747946	      0.60844278	      0.07581719	     97.46433602	     -5.82329657	     -1.18725002	     91.33463592	      1.59409012	     35.84984851	     -4.92721913	     -7.49999987	     98.72284323	    -10.57554306	      5.08971233	     89.71150937	      1.56576122	     31.17613684	    -13.57148477	     -7.49999987	    -16.20783292	     -2.05682706	      9.23135590	     66.63629422	     -6.07139411	     78.02269662	    125.35329783	    105.16933259	     79.43153723	     12.36394740	     74.39730670	    116.41911898	    106.39920452
      6.68333330	    -36.17991917	      3.39880354	     -7.86841752	      1.36277979	      0.59817375	      0.07320188	     99.36058291	     -6.17427888	     -1.13775409	     92.88099194	      1.62107912	     35.62380562	     -5.11304889	     -7.49999987	    100.65730399	    -10.37224053	      5.28475115	     91.13574627	      1.59061884	     30.62390172	    -14.22980186	     -7.49999987	    -16.60898348	     -2.09109781	      9.00666344	     68.31149901	     -6.31347528	     78.13226981	    127.13173395	    102.92462950	     81.48949597	     13.25022244	     73.83264035	    116.19206046	    104.96541620
      6.70000000	    -35.94836743	      3.48698519	     -7.80464686	      1.36855750	      0.59463478	      0.07093041	    100.55192239	     -6.45021701	     -0.96867548	     94.24364442	      1.64486189	     35.36084978	     -5.26607137	     -7.49999987	    101.77312955	    -10.15101981	      5.44347977	     92.38504716	      1.61242325	     30.48837344	    -14.33201213	     -7.49999987	    -17.63044362	     -1.94714121	      8.82657546	     68.11645341	     -6.46146984	     78.57529563	    126.92141995	    102.98336647	     81.26891048	     13.43766579	     74.04856978	    116.09474060	    105.06043057
      6.71666670	    -36.36673660	      3.71478967	     -7.52975569	      1.36375795	      0.58670336	      0.06772639	    102.38639716	     -6.93482184	     -0.65227696	     95.48929480	      1.66660259	     34.91280246	     -5.57536824	     -7.49999987	    103.41138835	     -9.63725283	      5.49629938	     93.39351763	      1.63002438	     30.12319411	    -14.82418684	     -7.49999987	    -17.85113218	     -1.79798907	      8.51015799	     68.70624723	     -7.25312067	     79.70231027	    126.31990197	    104.13315608	     80.98056977	     13.41005272	     74.39588309	    115.03260661	    108.82783043
      6.73333330	    -36.11154648	      3.77148509	     -7.36361006	      1.37361706	      0.58979728	      0.06858874	    102.91902518	     -7.26281844	     -0.39163049	     96.32588336	      1.68120382	     34.69365296	     -5.68113973	     -7.49999987	    103.81274445	     -9.12702413	      5.65232239	     94.08334977	      1.64206422	     30.26056528	    -14.84708939	     -7.49999987	    -19.02546631	     -1.60935094	      8.60099275	     67.51428788	     -7.63280678	     80.83507239	    125.85444835	    104.22852607	     79.57851692	     13.44407074	     75.07118131	    114.88202405	    108.91052639
      6.75000000	    -36.25777781	      3.90936375	     -7.25641654	      1.37787647	      0.58363709	      0.06539095	    103.65882669	     -7.48179867	     -0.04473243	     97.01994651	      1.69331751	     34.53766596	     -5.75194295	     -7.49999987	    104.35546721	     -8.66730496	      5.74170654	     94.71025342	      1.65300576	     30.56233970	    -14.67487354	     -7.49999987	    -19.10739106	     -1.41855367	      8.54674028	     66.58789790	     -7.65973664	     82.29805194	    125.63557386	    104.43422996	     77.63958805	     14.20643426	     74.52584079	    114.79615214	    109.04449858
      6.76666670	    -36.13338875	      3.89871929	     -7.14828771	      1.37198030	      0.57577940	      0.06792534	    104.11535986	     -7.65137802	      0.20931739	     97.77049000	      1.70641696	     34.42491372	     -5.88015419	     -7.49999987	    104.74034140	     -8.27661557	      5.88039659	     95.43319184	      1.66562341	     30.78763323	    -14.63882385	     -7.49999987	    -19.57005628	     -1.11412315	      8.26704392	     66.82305798	     -7.05135525	     83.11389653	    125.42106482	    103.31303138	     76.91506597	     14.10703061	     73.35136382	    115.79659393	    108.47096936
